<svg width="181" height="181" viewBox="0 0 181 181" fill="none" xmlns="http://www.w3.org/2000/svg">
<path fill-rule="evenodd" clip-rule="evenodd" d="M61.427 50.7639C55.7212 50.7639 51.4991 55.7581 51.6882 61.1741C51.8696 66.3774 51.6339 73.1165 49.9374 78.6122C48.2348 84.1233 45.3575 87.6157 40.6567 88.0639V93.1249C45.3575 93.5741 48.2348 97.0647 49.9372 102.577C51.6339 108.072 51.8694 114.811 51.688 120.015C51.4989 125.43 55.721 130.425 61.4278 130.425H119.894C125.6 130.425 129.821 125.431 129.632 120.015C129.451 114.811 129.686 108.072 131.383 102.577C133.085 97.0647 135.956 93.5727 140.657 93.1249V88.0639C135.956 87.6147 133.086 84.1241 131.383 78.6122C129.686 73.1172 129.451 66.3774 129.632 61.1741C129.821 55.7588 125.6 50.7639 119.894 50.7639H61.4263H61.427ZM108.453 99.8004C108.453 107.258 102.891 111.781 93.6593 111.781H77.9448C77.4953 111.781 77.0642 111.602 76.7463 111.284C76.4285 110.967 76.2499 110.536 76.2499 110.086V71.103C76.2499 70.6535 76.4285 70.2223 76.7463 69.9045C77.0642 69.5866 77.4953 69.4081 77.9448 69.4081H93.5698C101.267 69.4081 106.319 73.5776 106.319 79.9792C106.319 84.4723 102.921 88.4948 98.5911 89.1995V89.4338C104.485 90.0803 108.453 94.1624 108.453 99.8004ZM91.9458 74.7809H82.9856V87.4372H90.5323C96.3663 87.4372 99.5831 85.0879 99.5831 80.8889C99.5825 76.9538 96.8169 74.7809 91.9458 74.7809ZM82.9856 92.4588V106.406H92.2755C98.3497 106.406 101.567 103.969 101.567 99.3885C101.567 94.8081 98.2595 92.4581 91.8848 92.4581H82.9856V92.4588Z" fill="#7952B3"/>
</svg>
