<svg width="182" height="182" viewBox="0 0 182 182" fill="none" xmlns="http://www.w3.org/2000/svg">
<path d="M102.343 77.0107L92.3426 86.3224L83.0593 67.5896L87.855 56.8186C89.0671 54.6701 91.0494 54.6417 92.2615 56.8186L102.343 77.0107Z" fill="#FFA000"/>
<path d="M92.3467 86.3184L54.9379 121.113L83.0634 67.5897L92.3467 86.3184Z" fill="#F57F17"/>
<path d="M113.309 62.7697C115.101 61.063 116.945 61.6387 117.412 64.0629L127.137 120.642L94.8803 140.007C93.7493 140.64 90.7494 140.887 90.7494 140.887C90.7494 140.887 88.0212 140.555 86.9753 139.979L54.9379 121.113L113.309 62.7697Z" fill="#FFCA28"/>
<path d="M83.0634 67.5897L54.9379 121.112L67.4723 42.8816C67.9426 40.4574 69.3168 40.2101 70.5573 42.3586L83.0634 67.5897Z" fill="#FFA000"/>
</svg>
