<svg width="181" height="182" viewBox="0 0 181 182" fill="none" xmlns="http://www.w3.org/2000/svg">
<path d="M131.524 40.8911H49.6547C44.6481 40.8911 40.5895 44.9497 40.5895 49.9563V131.826C40.5895 136.833 44.6481 140.891 49.6547 140.891H131.524C136.531 140.891 140.589 136.833 140.589 131.826V49.9563C140.589 44.9497 136.531 40.8911 131.524 40.8911Z" fill="#DC395F"/>
<path d="M74.0094 72.3541C77.3336 72.3541 80.1184 69.7486 80.1184 66.3338C80.1184 62.9212 77.3336 60.3162 74.0094 60.3162C70.6852 60.3162 67.9012 62.9212 67.9012 66.3338C67.9012 69.7482 70.6852 72.3541 74.0094 72.3541ZM61.343 104.589C60.984 106.116 60.8039 107.765 60.8039 109.11C60.8039 114.412 63.6785 117.931 69.7875 117.931C74.8539 117.931 78.9614 114.922 81.9188 110.064L80.1129 117.311H90.1735L95.9235 94.249C97.361 88.41 100.146 85.3791 104.368 85.3791C107.692 85.3791 109.758 87.4463 109.758 90.8588C109.758 91.8475 109.668 92.9244 109.309 94.0928L106.344 104.693C105.895 106.221 105.716 107.749 105.716 109.185C105.716 114.217 108.68 117.898 114.879 117.898C120.179 117.898 124.401 114.486 126.737 106.311L122.784 104.785C120.808 110.262 119.101 111.252 117.753 111.252C116.405 111.252 115.687 110.355 115.687 108.559C115.687 107.75 115.867 106.853 116.136 105.773L119.011 95.4451C119.73 93.0201 120 90.8697 120 88.894C120 81.1682 115.328 77.1361 109.668 77.1361C104.368 77.1361 98.9778 81.917 96.2832 86.9486L98.259 77.9174H82.8981L80.7418 85.8721H87.9289L83.5032 103.591C80.0278 111.317 73.6438 111.442 72.8426 111.263C71.527 110.966 70.6856 110.466 70.6856 108.757C70.6856 107.771 70.8653 106.354 71.3145 104.646L78.0528 77.9174H60.984L58.8278 85.8721H65.9242L61.3434 104.589" fill="white"/>
</svg>
