<svg width="182" height="181" viewBox="0 0 182 181" fill="none" xmlns="http://www.w3.org/2000/svg">
<path d="M91.1241 114.438C113.248 144.597 134.899 106.02 134.867 82.8203C134.83 55.3922 107.029 40.0625 91.1061 40.0625C65.5483 40.0621 41.2089 61.1844 41.2089 90.0844C41.2089 122.207 69.1093 140 91.1061 140C86.1284 139.283 69.5397 135.729 69.3171 97.5207C69.1667 71.6793 77.7467 61.3547 91.0702 65.8965C91.3686 66.007 105.766 71.6867 105.766 90.2402C105.766 108.715 91.1241 114.437 91.1241 114.437V114.438Z" fill="url(#paint0_linear_22_682)"/>
<path d="M91.0984 65.8752C76.4796 60.8365 58.5714 72.8854 58.5714 97.0182C58.5714 136.423 87.7718 140 91.3117 140C116.869 140 141.209 118.877 141.209 89.9775C141.209 57.8549 113.309 40.062 91.3117 40.062C97.4042 39.2182 124.15 46.6557 124.15 83.2096C124.15 107.048 104.179 120.025 91.1902 114.481C90.8917 114.37 76.4937 108.69 76.4937 90.1369C76.4937 71.6615 91.0984 65.8752 91.0984 65.8752Z" fill="url(#paint1_linear_22_682)"/>
<defs>
<linearGradient id="paint0_linear_22_682" x1="55.9984" y1="54.7903" x2="130.698" y2="120.397" gradientUnits="userSpaceOnUse">
<stop/>
<stop offset="1" stop-color="white"/>
</linearGradient>
<linearGradient id="paint1_linear_22_682" x1="126.447" y1="125.237" x2="45.5955" y2="70.0243" gradientUnits="userSpaceOnUse">
<stop/>
<stop offset="1" stop-color="white"/>
</linearGradient>
</defs>
</svg>
