<svg width="181" height="182" viewBox="0 0 181 182" fill="none" xmlns="http://www.w3.org/2000/svg">
<path d="M130.334 60.3309C124.289 52.5036 116.059 46.6446 106.685 43.495C97.3099 40.3453 87.2118 40.0465 77.6673 42.6363C68.1228 45.2261 59.5607 50.5882 53.0639 58.0444C46.567 65.5006 42.4272 74.716 41.1681 84.5251C39.9089 94.3342 41.587 104.296 45.99 113.152C50.3931 122.007 57.3233 129.358 65.9042 134.274C74.4852 139.191 84.3314 141.452 94.1976 140.772C104.064 140.093 113.507 136.502 121.332 130.455C143.176 113.574 147.207 82.1823 130.332 60.3309H130.334Z" fill="#FF6C37"/>
<path d="M107.624 72.7496L86.542 93.9994L80.5842 87.8744C101.334 67.1246 103.417 68.9996 107.626 72.7496H107.624Z" fill="white"/>
<path d="M86.5421 94.5806C86.3553 94.576 86.1771 94.5019 86.0421 94.3728L80.0421 88.3728C79.907 88.233 79.8315 88.0462 79.8315 87.8517C79.8315 87.6573 79.907 87.4705 80.0421 87.3307C100.5 66.873 103.292 67.8308 108.125 72.2058C108.206 72.2705 108.27 72.3533 108.314 72.4474C108.357 72.5415 108.378 72.6444 108.375 72.748C108.406 72.9511 108.328 73.1589 108.167 73.2902L87.0843 94.3743C86.9364 94.5099 86.7426 94.5842 86.5421 94.5822V94.5806ZM81.6249 87.8728L86.5421 92.79L106.542 72.7902C105.851 71.9248 104.866 71.3443 103.774 71.1598C102.683 70.9753 101.561 71.1998 100.625 71.7902C96.9998 73.4152 91.167 78.3729 81.6249 87.8728Z" fill="#FF6C37"/>
<path d="M92.5841 99.8741L86.8341 93.9992L107.917 73.1652C113.584 78.7073 105.167 87.9571 92.5841 99.8726V99.8741Z" fill="white"/>
<path d="M92.5842 100.624C92.3998 100.61 92.2247 100.537 92.0842 100.416L86.2093 94.6665C86.1212 94.4529 86.1212 94.213 86.2093 93.9994C86.1468 93.824 86.1468 93.6325 86.2093 93.4572L107.292 72.3746C107.439 72.2369 107.632 72.1602 107.833 72.1602C108.035 72.1602 108.228 72.2369 108.375 72.3746C109.057 73.003 109.597 73.7711 109.956 74.6266C110.316 75.4821 110.487 76.4049 110.458 77.3324C110.458 82.9573 104.04 90.04 93.1248 100.374C92.979 100.519 92.7871 100.607 92.5827 100.624H92.5842ZM87.9171 93.9994L92.6249 98.7056C100.958 90.8306 108.917 82.7057 108.958 77.2058C109.003 76.0398 108.617 74.898 107.875 73.998L87.9171 93.9994Z" fill="#FF6C37"/>
<path d="M80.7499 87.9994L84.9171 92.1666C84.9437 92.19 84.965 92.2189 84.9795 92.2512C84.9941 92.2835 85.0017 92.3186 85.0017 92.3541C85.0017 92.3895 84.9941 92.4246 84.9795 92.4569C84.965 92.4893 84.9437 92.5181 84.9171 92.5416L76.125 94.4166C75.9475 94.4549 75.7623 94.4341 75.5977 94.3575C75.4331 94.2808 75.2981 94.1525 75.2132 93.992C75.1283 93.8316 75.0981 93.6477 75.1273 93.4685C75.1565 93.2893 75.2435 93.1246 75.375 92.9994L80.4999 87.9166C80.4999 87.9166 80.6671 87.9166 80.7499 87.9994Z" fill="white"/>
<path d="M75.9171 95.2494C75.6393 95.2459 75.367 95.1713 75.1263 95.0326C74.8856 94.8939 74.6845 94.6958 74.5421 94.4572C74.3819 94.155 74.3238 93.8091 74.3764 93.4712C74.4291 93.1332 74.5897 92.8214 74.8343 92.5822L79.917 87.4573C80.1003 87.2935 80.3376 87.2029 80.5834 87.2029C80.8293 87.2029 81.0665 87.2935 81.2498 87.4573L85.417 91.6244C85.6638 91.8588 85.7607 92.2135 85.667 92.5416C85.5732 92.8697 85.2982 93.1307 84.9592 93.2088L76.1671 95.0838L75.9171 95.2494ZM80.5842 88.9167L75.8765 93.6244L83.6685 91.9572L80.5842 88.9167Z" fill="#FF6C37"/>
<path d="M118.834 61.0403C115.818 58.1309 111.081 58.009 107.918 60.7543C104.756 63.4996 104.215 68.2121 106.678 71.6027C109.14 74.9933 113.782 75.9433 117.376 73.7901L111.709 68.123L118.834 61.0403Z" fill="white"/>
<path d="M113.209 75.7058C111.477 75.6836 109.789 75.1521 108.356 74.1774C106.924 73.2027 105.81 71.828 105.153 70.2246C104.497 68.6224 104.324 66.863 104.658 65.164C104.991 63.4649 105.815 61.9009 107.028 60.6653C108.696 59.0278 110.94 58.1104 113.278 58.1104C115.615 58.1104 117.86 59.0278 119.528 60.6653C119.687 60.7997 119.778 60.9981 119.778 61.2075C119.777 61.3105 119.755 61.4122 119.712 61.5058C119.669 61.5993 119.606 61.6825 119.528 61.7497L112.778 68.1246L117.903 73.1668C117.986 73.2461 118.048 73.3445 118.084 73.4535C118.121 73.5624 118.13 73.6786 118.111 73.7918C118.098 73.901 118.062 74.0062 118.005 74.0999C117.947 74.1936 117.87 74.2735 117.778 74.334C116.401 75.1946 114.818 75.6694 113.195 75.709L113.209 75.7058ZM113.209 59.5388C110.24 59.5544 107.584 61.3403 106.47 64.07C105.356 66.7996 105.962 69.9418 108.043 72.0387C109.079 73.0799 110.404 73.7842 111.846 74.0594C113.289 74.3346 114.78 74.1678 116.126 73.5808L111.209 68.6637C111.131 68.6012 111.068 68.5219 111.024 68.4317C110.981 68.3415 110.959 68.2427 110.959 68.1426C110.959 68.0425 110.981 67.9437 111.024 67.8535C111.068 67.7633 111.131 67.684 111.209 67.6215L117.709 61.0794C116.417 60.0891 114.837 59.5476 113.209 59.5372V59.5388Z" fill="#FF6C37"/>
<path d="M118.959 61.1653L111.834 68.248L117.501 73.9151C118.071 73.5877 118.602 73.1961 119.084 72.748C120.569 71.178 121.386 69.0924 121.363 66.9313C121.34 64.7703 120.478 62.7028 118.959 61.1653Z" fill="white"/>
<path d="M117.375 74.5402C117.281 74.5452 117.187 74.5292 117.101 74.4932C117.014 74.4572 116.937 74.4023 116.875 74.3324L111.207 68.6652C111.129 68.6027 111.066 68.5234 111.023 68.4332C110.979 68.343 110.957 68.2442 110.957 68.1441C110.957 68.044 110.979 67.9452 111.023 67.855C111.066 67.7648 111.129 67.6855 111.207 67.623L118.29 60.6653C118.359 60.5621 118.451 60.4775 118.561 60.419C118.67 60.3605 118.791 60.3298 118.915 60.3298C119.039 60.3298 119.161 60.3605 119.27 60.419C119.379 60.4775 119.472 60.5621 119.54 60.6653C120.372 61.4799 121.032 62.4524 121.483 63.5256C121.934 64.5987 122.166 65.7511 122.166 66.9152C122.166 68.0793 121.934 69.2317 121.483 70.3049C121.032 71.3781 120.372 72.3505 119.54 73.1652C119.05 73.6854 118.488 74.1341 117.873 74.498C117.718 74.5761 117.539 74.5912 117.373 74.5402H117.375ZM112.792 68.1246L117.5 72.8324C117.823 72.6054 118.13 72.3547 118.417 72.0824C119.801 70.7022 120.58 68.8291 120.584 66.8746C120.587 65.1255 119.95 63.4357 118.792 62.1246L112.792 68.1246Z" fill="#FF6C37"/>
<path d="M108.5 73.6245C107.935 73.0946 107.19 72.7996 106.416 72.7996C105.642 72.7996 104.897 73.0946 104.333 73.6245L85.4592 92.4557L88.5842 95.6228L108.542 78.1229C108.846 77.8312 109.088 77.4803 109.251 77.0918C109.415 76.7033 109.497 76.2854 109.493 75.8638C109.489 75.4423 109.399 75.026 109.228 74.6406C109.057 74.2552 108.809 73.9089 108.5 73.6229V73.6245Z" fill="white"/>
<path d="M88.4171 96.3743C88.2303 96.3697 88.052 96.2956 87.9171 96.1665L84.7499 92.9993C84.6148 92.8595 84.5393 92.6727 84.5393 92.4782C84.5393 92.2838 84.6148 92.097 84.7499 91.9572L103.625 73.1651C104.168 72.6221 104.863 72.255 105.617 72.1113C106.372 71.9677 107.153 72.0541 107.858 72.3594C108.563 72.6647 109.16 73.1748 109.572 73.8236C109.984 74.4724 110.191 75.2299 110.167 75.9979C110.145 76.5192 110.02 77.0309 109.798 77.5031C109.576 77.9753 109.262 78.3985 108.875 78.7479L88.917 96.2477C88.7719 96.3505 88.5935 96.3951 88.4171 96.3727V96.3743ZM86.2093 92.4556L88.2921 94.5806L107.875 77.5385C108.359 77.1167 108.648 76.5135 108.667 75.8714C108.686 75.2292 108.433 74.6011 107.959 74.1636C107.522 73.7282 106.93 73.4837 106.313 73.4837C105.696 73.4837 105.104 73.7282 104.667 74.1636L86.2093 92.4556Z" fill="#FF6C37"/>
<path d="M70.8344 113.915C70.7811 113.987 70.7524 114.075 70.7524 114.165C70.7524 114.255 70.7811 114.342 70.8344 114.415L71.6672 118.04C71.7006 118.253 71.669 118.472 71.5764 118.667C71.4839 118.862 71.3348 119.024 71.1485 119.134C70.9628 119.242 70.7475 119.289 70.5336 119.267C70.3196 119.246 70.118 119.157 69.9579 119.013L64.2501 113.513L82.0421 95.5806H88.2092L92.3764 99.7477C85.876 105.431 78.628 110.198 70.8344 113.915Z" fill="white"/>
<path d="M70.4594 120.04C69.9875 120.03 69.5219 119.837 69.2094 119.498L63.7516 114.04C63.6735 113.977 63.6104 113.898 63.567 113.808C63.5236 113.718 63.5011 113.619 63.5011 113.519C63.5011 113.419 63.5236 113.32 63.567 113.23C63.6104 113.139 63.6735 113.06 63.7516 112.998L81.6671 95.04C81.7674 94.9334 81.8985 94.8607 82.0421 94.8322H88.2498C88.4116 94.775 88.5881 94.775 88.7498 94.8322L92.917 98.9994C92.9962 99.0724 93.0565 99.1636 93.0927 99.2651C93.1289 99.3667 93.1399 99.4754 93.1248 99.5822C93.1277 99.6857 93.1067 99.7885 93.0633 99.8825C93.02 99.9766 92.9555 100.059 92.8748 100.124L92.542 100.417C86.0154 105.858 78.8349 110.462 71.1672 114.124L71.9594 117.499C72.0206 117.76 72.023 118.03 71.9662 118.292C71.9095 118.553 71.7952 118.798 71.6315 119.01C71.4679 119.222 71.2591 119.394 71.0203 119.514C70.7816 119.635 70.519 119.701 70.2516 119.707L70.4594 120.04ZM65.3766 113.498L70.2922 118.455C70.338 118.496 70.3972 118.519 70.4586 118.519C70.52 118.519 70.5792 118.496 70.625 118.455C70.6556 118.413 70.6721 118.362 70.6721 118.309C70.6721 118.257 70.6556 118.206 70.625 118.163L69.7922 114.538C69.7266 114.278 69.7529 114.003 69.8669 113.76C69.9808 113.517 70.1752 113.321 70.4172 113.205C77.8787 109.593 84.8741 105.087 91.2498 99.7884L87.8327 96.3712H82.2499L65.3766 113.498Z" fill="#FF6C37"/>
<path d="M59.9595 117.79L64.1266 113.623L70.5438 120.04L60.3361 119.332C60.1608 119.318 59.9944 119.249 59.8605 119.135C59.7266 119.021 59.6321 118.868 59.5906 118.697C59.549 118.527 59.5624 118.347 59.629 118.184C59.6955 118.022 59.8117 117.884 59.9611 117.791L59.9595 117.79Z" fill="white"/>
<path d="M70.6672 120.665L60.5001 119.957C59.897 119.901 59.3782 119.488 59.1657 118.937C58.9532 118.385 59.0829 117.73 59.5001 117.29L63.6672 113.123C63.8071 112.987 63.9939 112.912 64.1883 112.912C64.3828 112.912 64.5696 112.987 64.7094 113.123L71.0843 119.498C71.1726 119.618 71.2202 119.764 71.2202 119.914C71.2202 120.064 71.1726 120.209 71.0843 120.33C70.988 120.486 70.8405 120.604 70.6672 120.663V120.665ZM60.5001 118.332L68.8328 118.874L64.25 114.582L60.5001 118.332Z" fill="#FF6C37"/>
<path d="M88.7919 96.0837L80.3749 97.3758L85.2498 92.5431L88.7919 96.0837Z" fill="white"/>
<path d="M80.3749 98.165C80.235 98.1687 80.0972 98.1311 79.9785 98.0569C79.8599 97.9827 79.7657 97.8752 79.7077 97.7479C79.619 97.6271 79.5712 97.4812 79.5712 97.3314C79.5712 97.1816 79.619 97.0357 79.7077 96.915L84.5404 92.04C84.687 91.9023 84.8807 91.8256 85.0818 91.8256C85.283 91.8256 85.4766 91.9023 85.6232 92.04L89.1669 95.5807C89.2377 95.6929 89.2753 95.8229 89.2753 95.9557C89.2753 96.0884 89.2377 96.2184 89.1669 96.3307C89.1322 96.4675 89.0587 96.5914 88.9553 96.6876C88.852 96.7837 88.7231 96.8481 88.5841 96.8728L80.2515 98.165H80.3749ZM85.2498 93.6228L82.542 96.3307L87.2091 95.6228L85.2498 93.6228Z" fill="#FF6C37"/>
<path d="M88.792 96.0807L82.9171 96.8307C82.7599 96.8663 82.5953 96.8504 82.4479 96.7852C82.3004 96.7201 82.1779 96.6091 82.0985 96.4688C82.019 96.3285 81.9869 96.1664 82.0069 96.0064C82.0268 95.8464 82.0978 95.6971 82.2093 95.5807L85.2514 92.5385L88.792 96.0807Z" fill="white"/>
<path d="M82.7499 97.6244C82.4776 97.6218 82.2108 97.5472 81.9767 97.408C81.7426 97.2689 81.5495 97.0702 81.4171 96.8323C81.258 96.547 81.1963 96.2177 81.2414 95.8942C81.2866 95.5708 81.436 95.2709 81.6671 95.0401L84.7093 91.9979C84.8559 91.8602 85.0495 91.7835 85.2507 91.7835C85.4519 91.7835 85.6455 91.8602 85.7921 91.9979L89.3342 95.5401C89.4396 95.6399 89.5137 95.7681 89.5476 95.9092C89.5815 96.0503 89.5738 96.1982 89.5253 96.335C89.4769 96.4718 89.3898 96.5915 89.2746 96.6798C89.1594 96.7681 89.0211 96.821 88.8764 96.8323L83.0437 97.5823L82.7499 97.6244ZM82.7499 96.0823L87.1671 95.5401L85.2093 93.5823L82.7093 96.0823H82.7499ZM119 65.9575C118.921 65.826 118.797 65.7279 118.651 65.6818C118.505 65.6357 118.347 65.6449 118.207 65.7075C118.138 65.7424 118.077 65.7908 118.027 65.8499C117.977 65.9089 117.94 65.9774 117.917 66.0512C117.87 66.2002 117.885 66.3614 117.957 66.4996C118.25 67.1137 118.168 67.8403 117.75 68.3746C117.698 68.4261 117.657 68.4878 117.63 68.5559C117.603 68.6239 117.591 68.6968 117.593 68.7699C117.595 68.9165 117.651 69.0573 117.75 69.1653C117.857 69.2075 117.975 69.2075 118.082 69.1653C118.179 69.1896 118.281 69.187 118.377 69.1575C118.472 69.128 118.558 69.0729 118.625 68.9981C118.968 68.578 119.185 68.0694 119.251 67.5311C119.318 66.9928 119.23 66.4467 119 65.9559V65.9575Z" fill="#FF6C37"/>
</svg>
