<svg width="181" height="181" viewBox="0 0 181 181" fill="none" xmlns="http://www.w3.org/2000/svg">
<path d="M114.571 59.0476H119.333C120.666 59.0476 121.714 60.0952 121.714 61.4286C121.714 62.7619 120.666 63.8095 119.333 63.8095H114.571C113.237 63.8095 112.19 62.7619 112.19 61.4286C112.19 60.0952 113.237 59.0476 114.571 59.0476Z" fill="#56B3B4"/>
<path d="M43.1421 135.238H66.9516C68.2849 135.238 69.3325 136.286 69.3325 137.619C69.3325 138.953 68.2849 140 66.9516 140H43.1421C41.8087 140 40.7611 138.953 40.7611 137.619C40.7611 136.286 41.8087 135.238 43.1421 135.238Z" fill="#EA5E5E"/>
<path d="M100.285 97.1431H114.571C115.904 97.1431 116.951 98.1906 116.951 99.5239C116.951 100.857 115.904 101.905 114.571 101.905H100.285C98.9517 101.905 97.9041 100.857 97.9041 99.5239C97.9041 98.1906 98.9517 97.1431 100.285 97.1431Z" fill="#BF85BF"/>
<path d="M71.7135 97.1431H90.7611C92.0945 97.1431 93.1421 98.1906 93.1421 99.5239C93.1421 100.857 92.0945 101.905 90.7611 101.905H71.7135C70.3801 101.905 69.3325 100.857 69.3325 99.5239C69.3325 98.1906 70.3801 97.1431 71.7135 97.1431Z" fill="#EA5E5E"/>
<path d="M43.1421 97.1431H62.1897C63.523 97.1431 64.5707 98.1906 64.5707 99.5239C64.5707 100.857 63.523 101.905 62.1897 101.905H43.1421C41.8087 101.905 40.7611 100.857 40.7611 99.5239C40.7611 98.1906 41.8087 97.1431 43.1421 97.1431Z" fill="#56B3B4"/>
<path d="M43.1421 116.19H66.9516C68.2849 116.19 69.3325 117.238 69.3325 118.571C69.3325 119.905 68.2849 120.952 66.9516 120.952H43.1421C41.8087 120.952 40.7611 119.905 40.7611 118.571C40.7611 117.238 41.8087 116.19 43.1421 116.19Z" fill="#BF85BF"/>
<path d="M43.1421 78.0952H66.9516C68.2849 78.0952 69.3325 79.1429 69.3325 80.4762C69.3325 81.8096 68.2849 82.8572 66.9516 82.8572H43.1421C41.8087 82.8572 40.7611 81.8096 40.7611 80.4762C40.7611 79.1429 41.8087 78.0952 43.1421 78.0952Z" fill="#BF85BF"/>
<path d="M66.9515 49.5239H114.57C115.904 49.5239 116.951 50.5716 116.951 51.9049C116.951 53.2382 115.904 54.2859 114.57 54.2859H66.9515C65.6182 54.2859 64.5706 53.2382 64.5706 51.9049C64.5706 50.5716 65.6182 49.5239 66.9515 49.5239Z" fill="#F7BA3E"/>
<path d="M43.1421 49.5239H57.4278C58.7611 49.5239 59.8087 50.5716 59.8087 51.9049C59.8087 53.2382 58.7611 54.2859 57.4278 54.2859H43.1421C41.8087 54.2859 40.7611 53.2382 40.7611 51.9049C40.7611 50.5716 41.8087 49.5239 43.1421 49.5239Z" fill="#EA5E5E"/>
<path d="M62.1897 125.714H66.9516C68.285 125.714 69.3326 126.762 69.3326 128.095C69.3326 129.429 68.285 130.476 66.9516 130.476H62.1897C60.8563 130.476 59.8087 129.429 59.8087 128.095C59.8087 126.762 60.8563 125.714 62.1897 125.714Z" fill="#F7BA3E"/>
<path d="M62.1897 68.5715H66.9516C68.285 68.5715 69.3326 69.6191 69.3326 70.9524C69.3326 72.2857 68.285 73.3333 66.9516 73.3333H62.1897C60.8563 73.3333 59.8087 72.2857 59.8087 70.9524C59.8087 69.6191 60.8563 68.5715 62.1897 68.5715Z" fill="#56B3B4"/>
<path d="M43.1421 125.714H52.6659C53.9992 125.714 55.0468 126.762 55.0468 128.095C55.0468 129.429 53.9992 130.476 52.6659 130.476H43.1421C41.8087 130.476 40.7611 129.429 40.7611 128.095C40.7611 126.762 41.8087 125.714 43.1421 125.714Z" fill="#56B3B4"/>
<path d="M43.1421 68.5715H52.6659C53.9992 68.5715 55.0468 69.6191 55.0468 70.9524C55.0468 72.2857 53.9992 73.3333 52.6659 73.3333H43.1421C41.8087 73.3333 40.7611 72.2857 40.7611 70.9524C40.7611 69.6191 41.8087 68.5715 43.1421 68.5715Z" fill="#F7BA3E"/>
<path opacity="0.5" d="M105.047 125.714H109.809C111.142 125.714 112.19 126.762 112.19 128.095C112.19 129.429 111.142 130.476 109.809 130.476H105.047C103.714 130.476 102.666 129.429 102.666 128.095C102.666 126.762 103.714 125.714 105.047 125.714Z" fill="#D0D4D8"/>
<path opacity="0.5" d="M76.4754 125.714H95.5232C96.8565 125.714 97.9041 126.762 97.9041 128.095C97.9041 129.429 96.8565 130.476 95.5232 130.476H76.4754C75.1421 130.476 74.0945 129.429 74.0945 128.095C74.0945 126.762 75.1421 125.714 76.4754 125.714Z" fill="#D0D4D8"/>
<path opacity="0.5" d="M119.333 125.714H138.38C139.714 125.714 140.761 126.762 140.761 128.095C140.761 129.429 139.714 130.476 138.38 130.476H119.333C117.999 130.476 116.952 129.429 116.952 128.095C116.952 126.762 117.999 125.714 119.333 125.714Z" fill="#D0D4D8"/>
<path d="M81.2373 87.6191H119.332C120.666 87.6191 121.713 88.6667 121.713 90C121.713 91.3333 120.666 92.3809 119.332 92.3809H81.2373C79.9039 92.3809 78.8563 91.3333 78.8563 90C78.8563 88.6667 79.9039 87.6191 81.2373 87.6191Z" fill="#56B3B4"/>
<path d="M57.4278 87.6191H71.7135C73.0469 87.6191 74.0945 88.6667 74.0945 90C74.0945 91.3333 73.0469 92.3809 71.7135 92.3809H57.4278C56.0945 92.3809 55.0469 91.3333 55.0469 90C55.0469 88.6667 56.0945 87.6191 57.4278 87.6191Z" fill="#F7BA3E"/>
<path d="M43.1421 87.6191H47.904C49.2373 87.6191 50.2849 88.6667 50.2849 90C50.2849 91.3333 49.2373 92.3809 47.904 92.3809H43.1421C41.8087 92.3809 40.7611 91.3333 40.7611 90C40.7611 88.6667 41.8087 87.6191 43.1421 87.6191Z" fill="#EA5E5E"/>
<path d="M85.9992 59.0476H105.047C106.38 59.0476 107.428 60.0952 107.428 61.4286C107.428 62.7619 106.38 63.8095 105.047 63.8095H85.9992C84.6659 63.8095 83.6183 62.7619 83.6183 61.4286C83.6183 60.0952 84.6659 59.0476 85.9992 59.0476Z" fill="#BF85BF"/>
<path d="M43.1421 59.0476H76.4754C77.8087 59.0476 78.8563 60.0952 78.8563 61.4286C78.8563 62.7619 77.8087 63.8095 76.4754 63.8095H43.1421C41.8087 63.8095 40.7611 62.7619 40.7611 61.4286C40.7611 60.0952 41.8087 59.0476 43.1421 59.0476Z" fill="#56B3B4"/>
<path d="M57.4278 106.667H100.285C101.618 106.667 102.666 107.714 102.666 109.047C102.666 110.381 101.618 111.428 100.285 111.428H57.4278C56.0945 111.428 55.0469 110.381 55.0469 109.047C55.0469 107.714 56.0945 106.667 57.4278 106.667Z" fill="#F7BA3E"/>
<path d="M43.1421 106.667H47.904C49.2373 106.667 50.2849 107.714 50.2849 109.047C50.2849 110.381 49.2373 111.428 47.904 111.428H43.1421C41.8087 111.428 40.7611 110.381 40.7611 109.047C40.7611 107.714 41.8087 106.667 43.1421 106.667Z" fill="#BF85BF"/>
<path d="M100.285 68.5715H124.094C125.428 68.5715 126.475 69.6191 126.475 70.9524C126.475 72.2857 125.428 73.3333 124.094 73.3333H100.285C98.9517 73.3333 97.9041 72.2857 97.9041 70.9524C97.9041 69.6191 98.9517 68.5715 100.285 68.5715Z" fill="#EA5E5E"/>
<path d="M100.285 78.0952H124.094C125.428 78.0952 126.475 79.1429 126.475 80.4762C126.475 81.8096 125.428 82.8572 124.094 82.8572H100.285C98.9517 82.8572 97.9041 81.8096 97.9041 80.4762C97.9041 79.1429 98.9517 78.0952 100.285 78.0952Z" fill="#F7BA3E"/>
<path d="M43.1421 40H100.285C101.618 40 102.666 41.0476 102.666 42.381C102.666 43.7143 101.618 44.7619 100.285 44.7619H43.1421C41.8087 44.7619 40.7611 43.7143 40.7611 42.381C40.7611 41.0476 41.8087 40 43.1421 40Z" fill="#56B3B4"/>
<path opacity="0.5" d="M109.809 40H138.38C139.713 40 140.761 41.0476 140.761 42.381C140.761 43.7143 139.713 44.7619 138.38 44.7619H109.809C108.475 44.7619 107.428 43.7143 107.428 42.381C107.428 41.0476 108.475 40 109.809 40Z" fill="#D0D4D8"/>
<path opacity="0.5" d="M109.809 106.667H119.332C120.666 106.667 121.713 107.714 121.713 109.047C121.713 110.381 120.666 111.428 119.332 111.428H109.809C108.475 111.428 107.428 110.381 107.428 109.047C107.428 107.714 108.475 106.667 109.809 106.667Z" fill="#D0D4D8"/>
<path opacity="0.5" d="M128.856 106.667H138.38C139.713 106.667 140.761 107.714 140.761 109.047C140.761 110.381 139.713 111.428 138.38 111.428H128.856C127.523 111.428 126.475 110.381 126.475 109.047C126.475 107.714 127.523 106.667 128.856 106.667Z" fill="#D0D4D8"/>
<path opacity="0.5" d="M124.094 97.1431H138.38C139.714 97.1431 140.761 98.1906 140.761 99.5239C140.761 100.857 139.714 101.905 138.38 101.905H124.094C122.761 101.905 121.714 100.857 121.714 99.5239C121.714 98.1906 122.761 97.1431 124.094 97.1431Z" fill="#D0D4D8"/>
<path opacity="0.5" d="M124.094 49.5239H138.38C139.714 49.5239 140.761 50.5716 140.761 51.9049C140.761 53.2382 139.714 54.2859 138.38 54.2859H124.094C122.761 54.2859 121.714 53.2382 121.714 51.9049C121.714 50.5716 122.761 49.5239 124.094 49.5239Z" fill="#D0D4D8"/>
<path opacity="0.5" d="M128.856 87.6191H138.38C139.713 87.6191 140.761 88.6667 140.761 90C140.761 91.3333 139.713 92.3809 138.38 92.3809H128.856C127.523 92.3809 126.475 91.3333 126.475 90C126.475 88.6667 127.523 87.6191 128.856 87.6191Z" fill="#D0D4D8"/>
<path opacity="0.5" d="M128.856 59.0476H138.38C139.713 59.0476 140.761 60.0952 140.761 61.4286C140.761 62.7619 139.713 63.8095 138.38 63.8095H128.856C127.523 63.8095 126.475 62.7619 126.475 61.4286C126.475 60.0952 127.523 59.0476 128.856 59.0476Z" fill="#D0D4D8"/>
<path opacity="0.5" d="M133.618 68.5715H138.38C139.714 68.5715 140.761 69.6191 140.761 70.9524C140.761 72.2857 139.714 73.3333 138.38 73.3333H133.618C132.285 73.3333 131.237 72.2857 131.237 70.9524C131.237 69.6191 132.285 68.5715 133.618 68.5715Z" fill="#D0D4D8"/>
<path opacity="0.5" d="M133.618 78.0952H138.38C139.714 78.0952 140.761 79.1429 140.761 80.4762C140.761 81.8096 139.714 82.8572 138.38 82.8572H133.618C132.285 82.8572 131.237 81.8096 131.237 80.4762C131.237 79.1429 132.285 78.0952 133.618 78.0952Z" fill="#D0D4D8"/>
<path opacity="0.5" d="M95.5232 116.19H138.38C139.714 116.19 140.761 117.238 140.761 118.571C140.761 119.905 139.714 120.952 138.38 120.952H95.5232C94.1898 120.952 93.1422 119.905 93.1422 118.571C93.1422 117.238 94.1898 116.19 95.5232 116.19Z" fill="#D0D4D8"/>
<path opacity="0.5" d="M76.4754 116.19H85.9992C87.3326 116.19 88.3802 117.238 88.3802 118.571C88.3802 119.905 87.3326 120.952 85.9992 120.952H76.4754C75.1421 120.952 74.0945 119.905 74.0945 118.571C74.0945 117.238 75.1421 116.19 76.4754 116.19Z" fill="#D0D4D8"/>
<path opacity="0.5" d="M114.571 135.238H138.38C139.714 135.238 140.761 136.286 140.761 137.619C140.761 138.953 139.714 140 138.38 140H114.571C113.237 140 112.19 138.953 112.19 137.619C112.19 136.286 113.237 135.238 114.571 135.238Z" fill="#D0D4D8"/>
<path opacity="0.5" d="M76.4754 135.238H105.047C106.38 135.238 107.428 136.286 107.428 137.619C107.428 138.953 106.38 140 105.047 140H76.4754C75.1421 140 74.0945 138.953 74.0945 137.619C74.0945 136.286 75.1421 135.238 76.4754 135.238Z" fill="#D0D4D8"/>
<path opacity="0.5" d="M76.4755 68.5715H90.7613C92.0946 68.5715 93.1422 69.6191 93.1422 70.9524C93.1422 72.2857 92.0946 73.3333 90.7613 73.3333H76.4755C75.1421 73.3333 74.0945 72.2857 74.0945 70.9524C74.0945 69.6191 75.1421 68.5715 76.4755 68.5715Z" fill="#D0D4D8"/>
<path opacity="0.5" d="M76.4755 78.0952H90.7613C92.0946 78.0952 93.1422 79.1429 93.1422 80.4762C93.1422 81.8096 92.0946 82.8572 90.7613 82.8572H76.4755C75.1421 82.8572 74.0945 81.8096 74.0945 80.4762C74.0945 79.1429 75.1421 78.0952 76.4755 78.0952Z" fill="#D0D4D8"/>
</svg>
