<svg width="181" height="181" viewBox="0 0 181 181" fill="none" xmlns="http://www.w3.org/2000/svg">
<path d="M44.9951 46.011H136.662V135.178H44.9951V46.011Z" fill="#2E001E"/>
<path d="M40.8284 41.8442V139.344H140.828V41.8442H40.8284ZM44.995 46.0109H136.662V135.178H44.995V46.0109Z" fill="#FF2BC2"/>
<path d="M113.453 82.8025C112.828 82.5109 112.037 82.3859 111.037 82.3859C105.787 82.3859 102.287 86.4275 102.287 93.1358C102.287 100.802 105.87 103.886 110.537 103.886C111.537 103.886 112.62 103.761 113.412 103.427V82.8025H113.453ZM94.7867 93.4692C94.7867 83.7609 101.037 76.1775 111.287 76.1775C112.162 76.1775 112.62 76.1775 113.453 76.2609V65.4276C113.453 65.1776 113.662 65.0109 113.87 65.0109H120.578C120.912 65.0109 120.995 65.1359 120.995 65.3442V103.427C120.995 104.552 120.995 105.969 121.203 107.511C121.203 107.802 121.203 107.844 120.953 107.969C117.453 109.636 113.787 110.386 110.287 110.386C101.245 110.386 94.7867 104.802 94.7867 93.4692ZM80.5784 86.7192L92.245 109.344C92.4534 109.677 92.3284 110.011 91.995 110.011H84.745C84.2867 110.011 84.0784 109.886 83.87 109.469C81.2034 103.969 78.495 98.2608 75.7034 92.3442H75.62C73.12 97.9275 70.37 104.011 67.7034 109.511C67.495 109.844 67.2867 109.969 66.9534 109.969H60.0367C59.62 109.969 59.5784 109.636 59.7867 109.386L71.2034 87.4275L60.1617 65.5942C59.9117 65.2609 60.1617 64.9692 60.4534 64.9692H67.62C68.0367 64.9692 68.245 65.0526 68.37 65.4276C70.995 70.9692 73.6617 76.4275 76.1617 82.0109H76.245C78.6617 76.5109 81.3284 70.9692 83.87 65.5109C84.0784 65.1776 84.2034 64.9692 84.62 64.9692H91.3284C91.6617 64.9692 91.7867 65.2192 91.5784 65.5942L80.5784 86.7192Z" fill="#FF2BC2"/>
</svg>
